<svg width="256" height="256" viewBox="0 0 256 256" fill="none" xmlns="http://www.w3.org/2000/svg">
<path fill-rule="evenodd" clip-rule="evenodd" d="M95.5908 47L91.0313 69.7972H152.584C154.104 69.4172 156.915 69.5692 156.003 73.2168C155.091 76.8643 153.344 86.8951 152.584 91.4545H80.7726C61.1147 92.165 54.2439 98.3155 48.8565 118.811L36.318 181.503C34.0385 199.741 44.2971 210 57.9754 210H97.5525H190.199L218.696 75.4965C222.115 58.3986 212.997 47 199.318 47H95.5908ZM97.5525 210L147.706 149.587L127.189 150.727L149.986 103.993L124.909 106.273L95.2727 167.825H115.79L97.5525 210Z" fill="#3273DC"/>
</svg>
