<svg width="423" height="91" viewBox="0 0 423 91" fill="none" xmlns="http://www.w3.org/2000/svg">
<path fill-rule="evenodd" clip-rule="evenodd" d="M282.316 18L280.303 28.0676H307.485C308.157 27.8998 309.398 27.967 308.996 29.5778C308.593 31.1886 307.821 35.6184 307.485 37.6319H275.772C267.091 37.9456 264.057 40.6618 261.678 49.713L256.14 77.399C255.134 85.4531 259.664 89.9836 265.705 89.9836L283.183 89.9836L324.097 89.9836L336.682 30.5845C338.192 23.0338 334.165 18 328.124 18H282.316ZM283.183 89.9836L305.331 63.3043L296.271 63.8077L306.338 43.1691L295.264 44.1758L282.176 71.3584H291.237L283.183 89.9836Z" fill="#3273DC"/>
<path d="M65.498 27.5664L67 18H24.9451C16.9345 18 11.928 22.028 10.4261 27.5664L0.41305 76.9091C-1.08899 84.4615 1.41426 90 9.42484 90H51.9804L54.4837 80.4336H27.4484L38.9634 27.5664H65.498Z" fill="#3273DC"/>
<path fill-rule="evenodd" clip-rule="evenodd" d="M83.2476 18H132.248C137.748 18 141.248 22.5 139.748 29.5L130.748 74C128.248 84.5 123.748 90.5 113.248 90.5H70.7476C63.2476 90.5 57.7476 85.5 59.2476 77L69.7476 29.5C72.2476 21 75.2476 18 83.2476 18ZM98 28H113L102 80H87L98 28Z" fill="#3273DC"/>
<path d="M205 28L207 18H164.5C156 18 152 21 149 32L136 90H164.5L178 28H205Z" fill="#3273DC"/>
<path d="M265 28L267 18H224.5C216 18 212 21 209 32L196 90H224.5L238 28H265Z" fill="#3273DC"/>
<path fill-rule="evenodd" clip-rule="evenodd" d="M394.262 0H422.262L403.262 90H348.762C338.762 90 333.762 85 335.262 76.5L344.762 30.5C346.262 22 352.262 18.5 360.762 18.5H390.262L394.262 0ZM373.262 28H388.262L377.262 80H362.262L373.262 28Z" fill="#3273DC"/>
</svg>
