<svg width="414" height="896" viewBox="0 0 414 896" fill="none" xmlns="http://www.w3.org/2000/svg">
<g clip-path="url(#clip0)">
<rect width="414" height="896" fill="white"/>
<rect width="414" height="896" fill="#3273DC"/>
<g style="mix-blend-mode:soft-light" opacity="0.62">
<path d="M343.163 807.224L341.693 806.93L341.334 808.724H343.163V807.224ZM346.408 791V789.5H345.178L344.937 790.706L346.408 791ZM386.968 807.224V808.724H387.152L387.331 808.679L386.968 807.224ZM389.401 809.657L390.856 810.021L390.856 810.021L389.401 809.657ZM386.968 822.636V824.136H388.238L388.447 822.883L386.968 822.636ZM335.863 822.636V821.136H335.836L335.809 821.137L335.863 822.636ZM313.149 842.105L311.699 841.724L311.687 841.767L311.679 841.811L313.149 842.105ZM304.226 886.72L302.755 886.426L302.745 886.48L302.738 886.534L304.226 886.72ZM319.639 907L319.639 905.5H319.639V907ZM347.804 907L347.804 908.5L347.804 908.5L347.804 907ZM413.737 907L413.737 908.5L414.952 908.5L415.204 907.311L413.737 907ZM434.017 811.28L435.484 811.591L435.486 811.582L435.487 811.574L434.017 811.28ZM383.497 864.007L384.651 864.965L386.848 862.319L383.413 862.509L383.497 864.007ZM368.895 864.818L367.547 864.161L366.426 866.458L368.978 866.316L368.895 864.818ZM385.119 831.559L386.467 832.217L387.634 829.825L384.983 830.066L385.119 831.559ZM367.273 833.182L367.137 831.688L366.29 831.765L365.921 832.531L367.273 833.182ZM346.182 876.986L344.83 876.335L343.795 878.486H346.182V876.986ZM360.783 876.986L362.16 877.581L363.066 875.486H360.783V876.986ZM344.634 807.518L347.879 791.294L344.937 790.706L341.693 806.93L344.634 807.518ZM386.968 805.724H343.163V808.724H386.968V805.724ZM390.856 810.021C391.059 809.21 391.1 808.422 390.881 807.706C390.65 806.949 390.168 806.402 389.579 806.064C388.526 805.461 387.288 805.598 386.604 805.769L387.331 808.679C387.484 808.641 387.669 808.617 387.838 808.624C387.919 808.627 387.982 808.636 388.028 808.648C388.073 808.659 388.09 808.669 388.087 808.667C388.082 808.664 388.061 808.65 388.039 808.623C388.015 808.594 388.01 808.574 388.012 808.582C388.02 808.608 388.068 808.807 387.946 809.294L390.856 810.021ZM388.447 822.883C388.992 819.615 390.225 812.545 390.856 810.021L387.946 809.294C387.279 811.961 386.025 819.168 385.488 822.39L388.447 822.883ZM335.863 824.136H386.968V821.136H335.863V824.136ZM314.6 842.486C316.502 835.251 318.59 830.894 321.678 828.226C324.737 825.583 329.032 824.384 335.917 824.135L335.809 821.137C328.704 821.394 323.559 822.637 319.717 825.955C315.905 829.249 313.631 834.373 311.699 841.724L314.6 842.486ZM305.697 887.014L314.62 842.399L311.679 841.811L302.755 886.426L305.697 887.014ZM319.639 905.5C315.155 905.5 311.347 903.828 308.832 900.774C306.313 897.715 304.942 893.088 305.715 886.906L302.738 886.534C301.888 893.332 303.356 898.844 306.516 902.681C309.679 906.522 314.389 908.5 319.639 908.5V905.5ZM347.804 905.5L319.639 905.5L319.639 908.5L347.804 908.5L347.804 905.5ZM413.737 905.5L347.804 905.5L347.804 908.5L413.737 908.5L413.737 905.5ZM432.549 810.969L412.269 906.689L415.204 907.311L435.484 811.591L432.549 810.969ZM420.226 792.5C424.654 792.5 428.235 794.329 430.464 797.449C432.705 800.587 433.701 805.21 432.546 810.986L435.487 811.574C436.766 805.182 435.734 799.665 432.905 795.705C430.063 791.727 425.533 789.5 420.226 789.5V792.5ZM346.408 792.5H420.226V789.5H346.408V792.5ZM348.958 907.958L384.651 864.965L382.342 863.049L346.65 906.042L348.958 907.958ZM383.413 862.509L368.812 863.321L368.978 866.316L383.58 865.505L383.413 862.509ZM370.243 865.476L386.467 832.217L383.771 830.902L367.547 864.161L370.243 865.476ZM384.983 830.066L367.137 831.688L367.409 834.676L385.255 833.053L384.983 830.066ZM365.921 832.531L344.83 876.335L347.533 877.637L368.624 833.833L365.921 832.531ZM346.182 878.486H360.783V875.486H346.182V878.486ZM359.406 876.391L346.427 906.405L349.181 907.595L362.16 877.581L359.406 876.391Z" fill="white"/>
</g>
<g style="mix-blend-mode:soft-light" opacity="0.2">
<path d="M315 248L216.458 256.925L100 497.892H180.625L108.958 663L306.042 426.495L225.417 430.957L315 248Z" fill="white"/>
</g>
</g>
<defs>
<clipPath id="clip0">
<rect width="414" height="896" fill="white"/>
</clipPath>
</defs>
</svg>
